<svg xmlns="http://www.w3.org/2000/svg" width="250" height="250" viewBox="0 0 250 250">
  <defs>
    <style>
      .cls-1 {
        fill: #072ac8;
      }

      .cls-2 {
        fill: #fff;
        stroke: #000;
        stroke-width: 1px;
        fill-rule: evenodd;
      }
    </style>
  </defs>
  <circle class="cls-1" cx="125" cy="125" r="125"/>
  <path id="HA_" data-name="HA!" class="cls-2" d="M914.373,640.673l-5.131,28.895-29.9-.032,5.13-28.894-14-.015L858,710.414l14.1,0.015,5.332-29.895,29.8,0.032L901.9,710.46l14.1,0.015,12.374-69.787ZM977.1,710.539l14.8,0.016-12.627-69.913-16.3-.018L925.4,710.485l14.7,0.015,6.914-13.292,27.9,0.029Zm-24.375-24.225,15.432-29.584,4.968,29.605Zm64.246-46.733-6.95,48.293,11.9,0.012,10.15-48.289Zm-4.87,71.695a9.961,9.961,0,0,0,7.1-2.842,9.148,9.148,0,0,0,3.01-6.847,6.385,6.385,0,0,0-1.95-4.852,7.323,7.323,0,0,0-5.25-1.856,10.142,10.142,0,0,0-7.15,2.843,9.057,9.057,0,0,0-3.06,6.846,6.355,6.355,0,0,0,2,4.8,7.382,7.382,0,0,0,5.3,1.9h0Z" transform="translate(-820 -550)"/>
</svg>
